<?xml version="1.0" encoding="iso-8859-1"?>
<!-- Generator: Adobe Illustrator 16.0.0, SVG Export Plug-In . SVG Version: 6.00 Build 0)  -->
<!DOCTYPE svg PUBLIC "-//W3C//DTD SVG 1.1//EN" "http://www.w3.org/Graphics/SVG/1.1/DTD/svg11.dtd">
<svg version="1.1" id="Capa_1" xmlns="http://www.w3.org/2000/svg" xmlns:xlink="http://www.w3.org/1999/xlink" x="0px" y="0px"
	 width="191.167px" height="191.167px" viewBox="0 0 191.167 191.167" style="enable-background:new 0 0 191.167 191.167;"
	 xml:space="preserve">
<g>
	<g>
		<path d="M78.853,53.055c13.897,0,25.17-11.122,25.17-24.841c0-13.718-11.272-24.839-25.17-24.839
			c-13.901,0-25.173,11.121-25.173,24.839C53.68,41.933,64.952,53.055,78.853,53.055z"/>
		<path d="M177.706,160.846h-0.019l-18.858,0.001L118.55,126.41c-3.84-3.275-9.169-4.139-13.843-2.283
			c-0.033-0.031-15.244,6.753-15.244,6.753c-10.921-7.101-25.28-20.431-27.48-42.251c0.234-0.25,0.469-0.498,0.707-0.741
			c8.09-8.267,7.945-21.524-0.319-29.614c-8.267-8.088-21.524-7.943-29.613,0.32c-25.78,26.344-37.85,70.221-30.75,111.782
			c1.744,10.204,10.6,17.416,20.617,17.416c0.429,0,155.098-0.214,155.098-0.214c7.435-0.012,13.451-5.971,13.443-13.404
			C191.158,166.744,185.132,160.846,177.706,160.846z M88.163,156.244c-0.52-0.254-10.548-5.242-20.926-15.315l-25.164,11.382
			c-0.743-13.875,1.415-27.955,5.943-40.18c-2.852-7.667-4.602-16.521-4.277-26.513c0.741,22.521,11.297,38.389,21.416,48.508
			c14.089,14.087,30.136,19.937,30.813,20.179c0.998,0.357,2.018,0.525,3.021,0.525c2.179,0,4.465-0.45,6.239-1.582
			c-0.017,0.023,1.503-1.027,1.503-1.027l10.191,8.646l-28.474,0.02l5.706-2.465C91.48,157.955,88.859,156.587,88.163,156.244z"/>
	</g>
</g>
<g>
</g>
<g>
</g>
<g>
</g>
<g>
</g>
<g>
</g>
<g>
</g>
<g>
</g>
<g>
</g>
<g>
</g>
<g>
</g>
<g>
</g>
<g>
</g>
<g>
</g>
<g>
</g>
<g>
</g>
</svg>
