<svg height="512" viewBox="0 0 64 64" width="512" xmlns="http://www.w3.org/2000/svg"><path d="m46 2h-42a1 1 0 0 0 -1 1v58a1 1 0 0 0 1 1h42a1 1 0 0 0 1-1v-58a1 1 0 0 0 -1-1zm-1 58h-40v-48h40zm0-50h-40v-6h40z"/><path d="m8 23h6a1 1 0 0 0 1-1v-6a1 1 0 0 0 -1-1h-6a1 1 0 0 0 -1 1v6a1 1 0 0 0 1 1zm1-6h4v4h-4z"/><path d="m17 21h26v2h-26z"/><path d="m8 33h6a1 1 0 0 0 1-1v-6a1 1 0 0 0 -1-1h-6a1 1 0 0 0 -1 1v6a1 1 0 0 0 1 1zm1-6h4v4h-4z"/><path d="m17 31h26v2h-26z"/><path d="m8 43h6a1 1 0 0 0 1-1v-6a1 1 0 0 0 -1-1h-6a1 1 0 0 0 -1 1v6a1 1 0 0 0 1 1zm1-6h4v4h-4z"/><path d="m17 41h26v2h-26z"/><path d="m8 53h6a1 1 0 0 0 1-1v-6a1 1 0 0 0 -1-1h-6a1 1 0 0 0 -1 1v6a1 1 0 0 0 1 1zm1-6h4v4h-4z"/><path d="m17 51h26v2h-26z"/><path d="m60 12-2-.01a3.007 3.007 0 0 0 -3-2.99h-2a3.009 3.009 0 0 0 -3 3v11a1 1 0 0 0 1 1v24a1 1 0 0 0 1 1h4a1 1 0 0 0 1-1v-24a1 1 0 0 0 1-1v-9.01l1 .01v11h2v-12a1 1 0 0 0 -1-1zm-5 35h-2v-2h2zm0-4h-2v-19h2zm1-21h-4v-10a1 1 0 0 1 1-1h2a1 1 0 0 1 1 1z"/></svg>